<?xml version="1.0" encoding="utf-8"?>
<!-- Generator: Adobe Illustrator 19.0.0, SVG Export Plug-In . SVG Version: 6.00 Build 0)  -->
<svg version="1.1" id="Layer_1" xmlns="http://www.w3.org/2000/svg" xmlns:xlink="http://www.w3.org/1999/xlink" x="0px" y="0px"
	 viewBox="0 0 612 792" style="enable-background:new 0 0 612 792;" xml:space="preserve">
<style type="text/css">
	.st0{fill:#444955;}
	.st1{opacity:0.1;}
	.st2{fill:#FFFFFF;}
	.st3{fill:#3AAE74;}
	.st4{fill:#EACA43;}
	.st5{fill:#F04F4E;}
	.st6{opacity:0.14;}
	.st7{fill:#010101;}
	.st8{opacity:0.1;fill:#010101;}
</style>
<g id="XMLID_13_">
	<path id="XMLID_11_" class="st0" d="M502.7,541.1c0,13-10.5,23.5-23.5,23.5H150.6c-13,0-23.5-10.5-23.5-23.5V212.5
		c0-13,10.5-23.5,23.5-23.5h328.6c13,0,23.5,10.5,23.5,23.5V541.1z"/>
	<g id="XMLID_21_" class="st1">
		<rect id="XMLID_10_" x="127.1" y="494.2" class="st2" width="375.6" height="11.7"/>
		<rect id="XMLID_9_" x="127.1" y="412" class="st2" width="375.6" height="11.7"/>
		<rect id="XMLID_8_" x="127.1" y="329.8" class="st2" width="375.6" height="11.7"/>
		<rect id="XMLID_7_" x="127.1" y="247.7" class="st2" width="375.6" height="11.7"/>
	</g>
	<path id="XMLID_6_" class="st3" d="M444,294.6c0-6.5-5.2-11.7-11.7-11.7h-46.9c-6.5,0-11.7,5.2-11.7,11.7v269.9H444V294.6z"/>
	<path id="XMLID_5_" class="st4" d="M350.1,365.1c0-6.5-5.2-11.7-11.7-11.7h-46.9c-6.5,0-11.7,5.2-11.7,11.7v199.5h70.4V365.1z"/>
	<path id="XMLID_4_" class="st5" d="M256.2,435.5c0-6.5-5.2-11.7-11.7-11.7h-46.9c-6.5,0-11.7,5.2-11.7,11.7v129.1h70.4V435.5z"/>
	<g id="XMLID_15_" class="st6">
		<rect id="XMLID_3_" x="185.8" y="541.1" class="st7" width="70.4" height="23.5"/>
		<rect id="XMLID_12_" x="373.5" y="541.1" class="st7" width="70.4" height="23.5"/>
	</g>
	<rect id="XMLID_2_" x="279.7" y="541.1" class="st8" width="70.4" height="23.5"/>
</g>
</svg>
