<?xml version="1.0" standalone="no"?>
<!DOCTYPE svg PUBLIC "-//W3C//DTD SVG 20010904//EN"
 "http://www.w3.org/TR/2001/REC-SVG-20010904/DTD/svg10.dtd">
<svg version="1.0" xmlns="http://www.w3.org/2000/svg"
 width="1565.000000pt" height="1565.000000pt" viewBox="0 0 1565.000000 1565.000000"
 preserveAspectRatio="xMidYMid meet">
<metadata>
Created by potrace 1.11, written by Peter Selinger 2001-2013
</metadata>
<g transform="translate(0.000000,1565.000000) scale(0.100000,-0.100000)"
fill="#000000" stroke="none">
<path d="M859 15646 c-2 -2 -25 -7 -51 -10 -110 -15 -263 -76 -372 -149 -216
-145 -360 -358 -416 -615 -19 -85 -19 -251 -19 -7047 -1 -6776 0 -6962 18
-7045 54 -243 185 -445 386 -594 76 -57 201 -120 290 -145 144 -42 -167 -40
7125 -40 4886 -1 6953 2 6995 10 33 6 69 12 80 14 38 6 148 46 209 77 188 94
347 251 436 427 37 73 53 116 83 216 l22 70 2 6980 c2 7524 5 7030 -48 7186
-51 149 -124 268 -231 377 -137 139 -301 229 -496 272 -85 19 -222 20 -7048
20 -3828 0 -6963 -2 -6965 -4z"/>
</g>
</svg>
